/* XPM */
static char *goonRigIcon[] = {
/* width height ncolors chars_per_pixel */
"30 30 136 2",
/* colors */
"AA c #F8F8D8D8A0A0",
"BA c #F8F8C8C8A0A0",
"CA c #F8F8C8C89898",
"DA c #F8F8C0C08888",
"EA c #F8F8B8B89090",
"FA c #F0F0B0B08888",
"GA c #E8E8C8C8B0B0",
"HA c #E8E8B8B8A0A0",
"IA c #E8E8B8B88888",
"JA c #E8E8B0B09898",
"KA c #E8E8A8A88888",
"LA c #E0E0B0B06868",
"MA c #E0E0B0B05858",
"NA c #E0E0A8A87878",
"OA c #E0E088885858",
"PA c #E0E080806060",
"AB c #D8D8D0D0C0C0",
"BB c #D8D8B0B09090",
"CB c #D8D8B0B05050",
"DB c #D8D8A8A86060",
"EB c #D8D8A0A08080",
"FB c #D8D8A0A07878",
"GB c #D8D898987070",
"HB c #D0D0A8A85050",
"IB c #D0D098989898",
"JB c #D0D080804040",
"KB c #C8C8C8C87070",
"LB c #C8C8B8B8A0A0",
"MB c #C8C8B0B0B0B0",
"NB c #C8C8A8A8B0B0",
"OB c #C8C8A0A08080",
"PB c #C8C8A0A07878",
"AC c #C8C898987070",
"BC c #C8C898986868",
"CC c #C8C898985050",
"DC c #C0C0C0C06868",
"EC c #C0C09898A8A8",
"FC c #C0C088886868",
"GC c #C0C068687070",
"HC c #C0C068685050",
"IC c #B8B8C0C0C8C8",
"JC c #B8B8A8A8C0C0",
"KC c #B8B89898B0B0",
"LC c #B8B898988080",
"MC c #B8B89090A8A8",
"NC c #B8B890905858",
"OC c #B8B888887878",
"PC c #B8B888886868",
"AD c #B8B878787878",
"BD c #B0B0B8B87878",
"CD c #B0B0B0B08888",
"DD c #B0B0A0A0B8B8",
"ED c #B0B08888A8A8",
"FD c #B0B088889090",
"GD c #B0B088885858",
"HD c #B0B088884848",
"ID c #B0B080808080",
"JD c #B0B058585050",
"KD c #A8A8B0B09090",
"LD c #A8A8A8A8A8A8",
"MD c #A8A8A8A89898",
"ND c #A8A8A8A88080",
"OD c #A8A8A8A87878",
"PD c #A8A890909090",
"AE c #A8A88888B8B8",
"BE c #A8A888888888",
"CE c #A8A888886868",
"DE c #A8A880805858",
"EE c #A8A878789090",
"FE c #A8A878787878",
"GE c #A8A878786060",
"HE c #A8A878785858",
"IE c #A8A840403030",
"JE c #A0A098987070",
"KE c #A0A090904848",
"LE c #9898A8A8A8A8",
"ME c #98989898A0A0",
"NE c #989898989898",
"OE c #989890908888",
"PE c #989890907070",
"AF c #989888888080",
"BF c #989888887878",
"CF c #989880805858",
"DF c #98987878A0A0",
"EF c #989878785858",
"FF c #989878784040",
"GF c #989870708888",
"HF c #989870706060",
"IF c #989868685050",
"JF c #909068688080",
"KF c #909068684848",
"LF c #909050504040",
"MF c #909030302828",
"NF c #88888888A8A8",
"OF c #888888888888",
"PF c #888880807878",
"AG c #888870706868",
"BG c #888868684848",
"CG c #888848483838",
"DG c #80808888B0B0",
"EG c #808068685858",
"FG c #808060609898",
"GG c #808060607070",
"HG c #808058584040",
"IG c #808038382828",
"JG c #78788080B8B8",
"KG c #78787878B0B0",
"LG c #787878783838",
"MG c #787870707070",
"NG c #787870706060",
"OG c #787868685858",
"PG c #787858584848",
"AH c #787840404848",
"BH c #787838382828",
"CH c #707068686868",
"DH c #707060602828",
"EH c #707050503838",
"FH c #686850505858",
"GH c #686850503838",
"HH c #686848483838",
"IH c #686828282828",
"JH c #606060606868",
"KH c #606060605858",
"LH c #606058584040",
"MH c #606048484040",
"NH c #606040406868",
"OH c #585850503030",
"PH c #585840403030",
"AI c #505050505050",
"BI c #505050504848",
"CI c #505040402828",
"DI c #505038383030",
"EI c #404030302828",
"FI c #404028282020",
"GI c #383828281818",
"HI c #282820201818",
/* pixels */
"LDNELDNELDNELDNELDPDLELDNELDNELDMELDNELDNELDNELDNELDNELDNELD",
"NELDNELDNELDNELDLELEMCMELDMELDNELEMCLEMDLDNELDNELDNELDNELDNE",
"LDNELDLDLDNELDNDBDCDBDCDCDODCFCECFPEPDMELDLDMELDMDLDMELDMDLD",
"NELDLDMENELDMDBDCDMDLDNDCFGDHBHBHBCBNCBCPENELDLDMEMELDNELDME",
"LDNEMDLDMELDMELDNDCDBDHFPCGBEBEAEAFAIAHBNCKEBDOBKDLDMELDNELD",
"NELDMENELDMEMDMCLEMCEGHEACNAFAEACACAFAEBFCHEAGKDMDBDCDMDMELD",
"LDNELDLDNELDLEMDLEPFKFACNAKACACAAABACAKABCPCHGOECDMDBDDCMDME",
"NELDLEPDLELDNEMELDOGGDMAACKCNBAAAAAAFAKAACGEFFGHCDCDOBMDMDLD",
"LDNELDLEPDLELDLEOFIEJBLAFDHAAEJCJCAACANAFCPCEGHHOFLELEMCLENE",
"NELDLDPDLELDPDFDIEJBMAIAFDIBEDGAAENBEAGBPCHEKFGHCHLDLDLENELD",
"LDNELELDMCMDBEJDJDPAOAMAACFGDFDFGAECFDGBPCEFHGHHKHLDMEMDLDNE",
"NELDMEMDLEPDGCBHIGMFBHHEPCHGOGNHDFDFGBPCHEIFBGEIFHLDLDLDNELD",
"LDNELDMELEPDADIHIGACOCCEACPCNAKAHFFEPCHEIFBGMHEIKHLDLEPDLEMC",
"MEMDLDMEMDLEMBNGOFLDBIGBGBEGOCACNAGDPCEFBGPGHHGIMGMBPDLELEMD",
"LDMEMDLDMELELECHBFICMDKAACNEICAIPDEBPCKFBGHHEIHINELELEPDLDLE",
"NELDMENELDLEPDLFHEACDBIAEAACLBABGAKAPCBGPGEFPCAGLENELDLDLEPD",
"LDNELDLDNELDFELFHCPCACEAAAHANBBAAAKAEFHGPGIAFBEGNELDNELDNELD",
"NELDLEPDLELDFECGHCFCFCJABANBNBNBEAACKFPGBGKAGDAGLDNELDNELDLE",
"LDNELDLEPDIDOEHHPGBGIFACEAKCNBIBGBHEEGHHHEACBGAFLDLDMDMELDPD",
"NELDNELDPDADBEPHHHDIPHCEEBEBADACCEEFEHHHPCPCAGMEKGNFLELDPDLE",
"LDNELDLEIDGCIDBIHHGDKAEAIAFEGFFGHEHGPGEIBGEGNFJGLDDGNFLDLEPD",
"MDLEMCLELCPDLDOGPHFHJELCOBDFEEJFEFHGCIMHLEPDDGMELDMEDGNEMDLD",
"MEMDLELDLELELDNGAHFDKCNEMCBBFDGGBGHHEIOFLDLDDGDGMCJGMELDMELE",
"LDLEPDOEMCLEDDNGAHCEBBCADAIAPCIFGHFIJHLDNELDDGDGKGLEMCMDLEMC",
"LEPDIDIDBEMDLEOFGHCCEBEBPBPCFFPGFIDILELDMDDGMEMCLEMDLEMEMDLE",
"LDIDMDDDOCNELDNEDHBCGBBCCEIFPHFIOHNELDMDDGNFLDLEMDMELELDMEMD",
"MEADLDNEADLDNELDLGCIOGPGBHEIEIBIKBKBLDNFDGLDBFHFHFOCAFLELDME",
"LDPDADIDIDBELELDBDJHCIEHLHDEEGMGMDOENFDGPDEGHEFBKABCCEBFLDLD",
"LELDMCMDLEIDFDLDCDODHDEFPCHEKFEGBGBGPGCHPGHEBCKACAEAFBPCPFLD",
"PDMDLEMELELDBEEGBGHEEFIFHECEFCBCFCHEHEBGHHCEBCKACAAAKAPCLHNE"};
